<svg width="1703" height="416" viewBox="0 0 1703 416" fill="none" xmlns="http://www.w3.org/2000/svg">
<path d="M945 348H976.734C990.482 348 998.109 352.991 998.109 364.573C998.109 371.541 994.719 375.873 988.975 378.698C997.262 381.052 1001.31 387.361 1001.31 395.742C1001.31 409.113 990.105 415.234 977.581 415.234H945V348ZM959.784 375.214H974.85C980.218 375.214 983.796 372.671 983.796 367.21C983.796 361.842 980.218 359.488 973.815 359.488H959.784V375.214ZM959.784 403.746H975.698C982.572 403.746 986.527 400.921 986.527 394.894C986.527 388.397 982.666 385.29 975.98 385.29H959.784V403.746Z" fill="#6b6b69"/>
<path d="M1003.96 348H1020.62L1036.35 374.555L1051.98 348H1068.46L1043.51 389.433V415.234H1028.72V389.056L1003.96 348Z" fill="#6b6b69"/>
<path d="M1250.2 415.234V393.699L1252.72 389.223L1272.85 369.085V362.092H1230.06V409.361L1224.19 415.234H1205.17L1189.79 402.509L1177.48 413.836L1173.56 415.234H1149.51V362.094H1129.37V415.233H1115.95V362.094H1107L1095.81 373.002V415.233H1082.38V369.925L1084.62 365.59L1101.12 349.647L1105.32 348.109H1155.1L1162.93 355.8V402.09H1170.49L1183.07 390.343V348.107H1196.5V390.343L1209.08 402.09H1216.64V348.108H1279.29L1286 354.822V372.722L1283.2 377.477L1263.62 397.055L1263.62 415.228L1250.2 415.234Z" fill="#6b6b69"/>
<path d="M287.57 135.549V171.298H269.495C261.997 171.298 254.9 172.771 248.206 175.716C241.779 178.394 236.021 182.277 230.934 187.365C226.113 192.185 222.231 197.943 219.285 204.637C216.607 211.064 215.268 218.026 215.268 225.524V315.902H179.117V225.524C179.117 212.939 181.393 201.29 185.946 190.578C190.766 179.599 197.327 170.093 205.628 162.059C213.929 153.758 223.569 147.331 234.549 142.779C245.528 137.959 257.177 135.549 269.495 135.549H287.57Z" fill="#6b6b69"/>
<path d="M406.024 280.153V315.902H388.351C376.032 315.902 364.384 313.626 353.405 309.073C342.425 304.253 332.785 297.693 324.484 289.391C316.182 281.09 309.622 271.45 304.802 260.47C300.249 249.491 297.973 237.843 297.973 225.524V63.2466H333.722V171.7H406.024V207.449H333.722V225.524C333.722 233.022 335.061 240.119 337.739 246.813C340.685 253.508 344.568 259.399 349.388 264.487C354.476 269.307 360.367 273.19 367.062 276.136C373.756 278.814 380.853 280.153 388.351 280.153H406.024Z" fill="#6b6b69"/>
<path fill-rule="evenodd" clip-rule="evenodd" d="M60.9498 67.7141C33.1356 70.966 18.9139 79.1804 8.23229 98.1687C0.573739 111.778 0.0585091 119.514 0.0276278 221.161L0 316.152H30.8812V232.216L130.839 233.086L131.707 316.152H162.533V223.324C162.533 126.6 161.997 117.66 155.208 101.216C149.031 86.2582 132.559 73.4875 114.586 69.7241C102.768 67.2486 74.1101 66.1761 60.9498 67.7141ZM53.6358 102.248C42.8892 105.985 35.2778 114.069 32.6821 124.499C31.6484 128.659 30.8812 146.486 30.8812 166.399V201.059L130.839 200.189L131.278 165.384C131.678 133.636 131.421 129.784 128.37 121.53C122.226 104.912 109.385 98.9911 79.6931 99.0848C67.2528 99.1227 60.1323 99.9874 53.6358 102.248Z" fill="#6b6b69"/>
<path d="M450.109 113.193L446.101 102.155H423.956L419.949 113.193H412.989L431.338 63.9805H438.72L457.069 113.193H450.109ZM426.206 96.0388H443.852L434.994 71.7842L426.206 96.0388Z" fill="#6b6b69"/>
<path d="M603.82 88.7975V91.7503C603.82 98.1713 601.617 103.514 597.212 107.779C592.806 111.998 586.971 114.107 579.706 114.107C572.207 114.107 565.997 111.646 561.076 106.725C556.202 101.757 553.764 95.7107 553.764 88.5866C553.764 81.4626 556.202 75.4399 561.076 70.5187C565.997 65.5506 572.16 63.0666 579.566 63.0666C584.112 63.0666 588.283 64.168 592.08 66.3708C595.876 68.5268 598.805 71.3858 600.868 74.9478L595.243 78.2521C593.837 75.5805 591.705 73.448 588.846 71.8545C586.034 70.2141 582.917 69.3938 579.495 69.3938C573.871 69.3938 569.255 71.2452 565.646 74.9478C562.037 78.6036 560.232 83.1498 560.232 88.5866C560.232 94.0234 562.037 98.5697 565.646 102.225C569.301 105.881 574.012 107.709 579.777 107.709C584.698 107.709 588.682 106.514 591.728 104.124C594.775 101.686 596.626 98.5462 597.282 94.703H579.214V88.7975H603.82Z" fill="#6b6b69"/>
<path d="M719.515 53.7162L715.226 59.4108H708.688L716.14 49.9199H722.889L730.341 59.4108H723.803L719.515 53.7162ZM711.57 107.006H734.419V113.193H705.032V63.9805H734.068V70.1672H711.57V85.2824H732.31V91.3988H711.57V107.006Z" fill="#6b6b69"/>
<path d="M866.281 63.9805H872.819V113.193H867.546L842.237 76.4242V113.193H835.699V63.9805H840.972L866.281 100.679V63.9805Z" fill="#6b6b69"/>
<path d="M999.495 114.107C992.043 114.107 985.88 111.646 981.006 106.725C976.178 101.804 973.764 95.7576 973.764 88.5866C973.764 81.4157 976.178 75.3696 981.006 70.4484C985.88 65.5272 992.043 63.0666 999.495 63.0666C1003.99 63.0666 1008.12 64.1445 1011.87 66.3005C1015.67 68.4565 1018.62 71.3623 1020.73 75.0181L1015.03 78.3224C1013.63 75.604 1011.52 73.448 1008.71 71.8545C1005.94 70.2141 1002.87 69.3938 999.495 69.3938C993.824 69.3938 989.184 71.2217 985.575 74.8775C982.013 78.5333 980.232 83.103 980.232 88.5866C980.232 94.0234 982.013 98.5697 985.575 102.225C989.184 105.881 993.824 107.709 999.495 107.709C1002.87 107.709 1005.94 106.912 1008.71 105.319C1011.52 103.678 1013.63 101.522 1015.03 98.8509L1020.73 102.085C1018.66 105.741 1015.74 108.67 1011.94 110.873C1008.14 113.029 1003.99 114.107 999.495 114.107Z" fill="#6b6b69"/>
<path d="M1123.03 63.9228H1129.57V113.135H1123.03V63.9228Z" fill="#6b6b69"/>
<path d="M1136.76 63.9228V70.4628H1115.76V63.9228H1136.76Z" fill="#6b6b69"/>
<path d="M1136.76 106.923V113.463H1115.76V106.923H1136.76Z" fill="#6b6b69"/>
<path d="M1267.11 113.193L1263.1 102.155H1240.96L1236.95 113.193H1229.99L1248.34 63.9805H1255.72L1274.07 113.193H1267.11ZM1243.21 96.0388H1260.85L1251.99 71.7842L1243.21 96.0388Z" fill="#6b6b69"/>
<path d="M569.009 141.784V176.194H464.234C459.337 176.194 455.213 177.869 451.862 181.22C448.511 184.571 446.836 188.695 446.836 193.592C446.836 198.489 448.511 202.742 451.862 206.35C455.213 209.701 459.337 211.377 464.234 211.377H533.826C541.043 211.377 547.745 212.794 553.931 215.629C560.374 218.207 565.916 221.815 570.556 226.455C575.453 231.094 579.19 236.636 581.768 243.08C584.603 249.266 586.021 255.967 586.021 263.184C586.021 270.401 584.603 277.232 581.768 283.675C579.19 289.861 575.453 295.403 570.556 300.3C565.916 304.94 560.374 308.677 553.931 311.512C547.745 314.09 541.043 315.379 533.826 315.379H429.438V280.969H533.826C538.981 280.969 543.234 279.294 546.585 275.943C549.936 272.592 551.611 268.339 551.611 263.184C551.611 258.287 549.936 254.163 546.585 250.812C543.234 247.462 538.981 245.786 533.826 245.786H464.234C457.017 245.786 450.187 244.497 443.743 241.92C437.557 239.085 432.144 235.347 427.505 230.708C422.865 225.811 419.128 220.269 416.292 214.083C413.715 207.639 412.426 200.809 412.426 193.592C412.426 186.375 413.715 179.673 416.292 173.487C419.128 167.044 422.865 161.502 427.505 156.863C432.144 152.223 437.557 148.615 443.743 146.037C450.187 143.202 457.017 141.784 464.234 141.784H569.009Z" fill="#6b6b69"/>
<path d="M727.733 254.432L752.091 278.789L740.105 290.775C731.857 299.023 722.45 305.337 711.882 309.719C701.314 314.101 690.231 316.292 678.632 316.292C667.033 316.292 655.95 314.101 645.382 309.719C634.815 305.337 625.407 299.023 617.159 290.775C608.653 282.269 602.338 272.732 598.214 262.164C594.09 251.339 592.028 240.385 592.028 229.301C592.028 218.218 594.09 207.393 598.214 196.825C602.338 186.257 608.653 176.72 617.159 168.215C625.665 159.709 635.201 153.394 645.769 149.27C656.595 144.888 667.549 142.698 678.632 142.698C689.715 142.698 700.541 144.888 711.109 149.27C721.934 153.394 731.6 159.709 740.105 168.215L752.091 180.2L655.821 276.469C665.616 281.367 675.926 283.042 686.751 281.496C697.834 279.691 707.5 274.665 715.748 266.417L727.733 254.432ZM641.516 192.185C631.206 202.495 626.051 214.867 626.051 229.301C626.051 237.292 627.855 244.895 631.464 252.112C634.557 249.019 639.196 244.38 645.382 238.194C651.826 231.75 658.528 225.048 665.487 218.089C672.704 210.872 679.534 204.042 685.978 197.598C692.68 191.154 697.834 186.128 701.443 182.52C691.648 177.623 681.21 175.947 670.126 177.494C659.301 179.04 649.764 183.937 641.516 192.185Z" fill="#6b6b69"/>
<path d="M938.97 141.151L848.5 315.132L758.417 141.151H797.079C800.688 148.11 804.812 156.1 809.451 165.122C814.091 173.885 818.73 182.906 823.37 192.185C828.009 201.207 832.52 209.97 836.902 218.476C841.541 226.982 845.407 234.327 848.5 240.513C852.367 233.039 856.748 224.533 861.646 214.996C866.8 205.202 871.827 195.536 876.724 185.999C881.621 176.463 886.132 167.699 890.256 159.709C894.38 151.461 897.602 145.275 899.921 141.151H938.97Z" fill="#6b6b69"/>
<path d="M1081.02 254.432L1105.38 278.789L1093.4 290.775C1085.15 299.023 1075.74 305.337 1065.17 309.719C1054.6 314.101 1043.52 316.292 1031.92 316.292C1020.32 316.292 1009.24 314.101 998.672 309.719C988.105 305.337 978.697 299.023 970.449 290.775C961.943 282.269 955.628 272.732 951.504 262.164C947.38 251.339 945.318 240.385 945.318 229.301C945.318 218.218 947.38 207.393 951.504 196.825C955.628 186.257 961.943 176.72 970.449 168.215C978.955 159.709 988.491 153.394 999.059 149.27C1009.88 144.888 1020.84 142.698 1031.92 142.698C1043.01 142.698 1053.83 144.888 1064.4 149.27C1075.22 153.394 1084.89 159.709 1093.4 168.215L1105.38 180.2L1009.11 276.469C1018.91 281.367 1029.22 283.042 1040.04 281.496C1051.12 279.691 1060.79 274.665 1069.04 266.417L1081.02 254.432ZM994.806 192.185C984.496 202.495 979.341 214.867 979.341 229.301C979.341 237.292 981.145 244.895 984.754 252.112C987.847 249.019 992.487 244.38 998.672 238.194C1005.12 231.75 1011.82 225.048 1018.78 218.089C1025.99 210.872 1032.82 204.042 1039.27 197.598C1045.97 191.154 1051.12 186.128 1054.73 182.52C1044.94 177.623 1034.5 175.947 1023.42 177.494C1012.59 179.04 1003.05 183.937 994.806 192.185Z" fill="#6b6b69"/>
<path d="M1111.84 228.915C1111.84 216.8 1114.03 205.588 1118.41 195.278C1123.05 184.711 1129.24 175.561 1136.97 167.828C1144.96 159.838 1154.24 153.652 1164.81 149.27C1175.37 144.631 1186.59 142.311 1198.44 142.311C1210.56 142.311 1221.77 144.631 1232.08 149.27C1242.65 153.652 1251.92 159.838 1259.91 167.828C1267.91 175.561 1274.09 184.711 1278.47 195.278C1283.11 205.588 1285.43 216.8 1285.43 228.915V315.905H1251.02V228.915C1251.02 221.698 1249.6 214.996 1246.77 208.81C1244.19 202.367 1240.45 196.825 1235.56 192.185C1230.92 187.288 1225.38 183.551 1218.93 180.973C1212.49 178.138 1205.66 176.72 1198.44 176.72C1191.22 176.72 1184.39 178.138 1177.95 180.973C1171.76 183.551 1166.22 187.288 1161.33 192.185C1156.69 196.825 1152.95 202.367 1150.11 208.81C1147.54 214.996 1146.25 221.698 1146.25 228.915V315.905H1111.84V228.915Z" fill="#6b6b69"/>
<path fill-rule="evenodd" clip-rule="evenodd" d="M1513.13 0C1617.94 0 1702.9 84.9633 1702.9 189.77C1702.9 294.576 1617.94 379.538 1513.13 379.538C1495.79 379.538 1478.99 377.199 1463.03 372.84C1466.21 369.191 1468.99 364.65 1471.37 359.216C1489.14 316.878 1505.3 278.577 1519.85 244.318C1525.99 229.773 1531.97 215.391 1537.78 201.169C1539.53 196.89 1541.24 192.744 1542.9 188.729L1561.02 182.982L1543.59 167.07L1540.89 179.35L1533.41 181.724L1538.47 158.675L1550.78 169.912C1551.8 167.505 1552.8 165.157 1553.78 162.869L1557.44 154.329L1554.4 148.254L1559.9 148.585C1561.87 143.974 1563.65 139.789 1565.25 136.033L1580.12 140.797L1574.24 113.652C1575.93 108.565 1577.24 103.722 1578.18 99.124L1559.57 87.3254L1580.35 76.4485C1580.36 73.3756 1580.23 70.5088 1579.96 67.8466C1579.81 66.1274 1579.63 64.4511 1579.41 62.8178L1539.15 78.7795L1543.69 47.9691H1430.16C1411.09 47.9691 1397.02 47.7036 1387.93 47.1714C1421.35 17.8109 1465.16 0 1513.13 0ZM1647.24 106.709L1629.7 107.569L1637.73 91.9459L1647.24 106.709ZM1416.69 353.226C1360.83 320.201 1323.36 259.364 1323.36 189.77C1323.36 143.634 1339.83 101.349 1367.2 68.4587C1367.87 70.4575 1368.66 72.3553 1369.55 74.1494C1373.43 80.9369 1378.61 85.7848 1385.07 88.6934C1391.21 91.9257 1398 93.945 1405.43 94.7534C1412.86 95.5617 1420.3 95.9654 1427.73 95.9654H1524.69C1524.05 97.581 1521.78 102.915 1517.91 111.964C1514.03 121.014 1509.18 132.407 1503.36 146.144C1497.55 159.879 1491.08 175.313 1483.97 192.443C1476.86 209.572 1469.59 227.026 1462.15 244.802C1448.32 277.593 1433.17 313.734 1416.69 353.226ZM1544.79 70.9089L1552.59 17.9121L1594.59 51.1656L1544.79 70.9089ZM1572.29 88.5053L1619.75 63.669L1617.53 117.191L1572.29 88.5053ZM1546.72 127.525L1568.1 108.122L1566.33 99.918L1538.73 124.961L1546.72 127.525ZM1600.07 122.06L1626.79 127.319L1608.87 147.827L1600.07 122.06ZM1558.34 151.272L1595.54 153.509L1575 184.604L1558.34 151.272Z" fill="#6b6b69"/>
</svg>
