<?xml version="1.0" encoding="UTF-8"?>
<svg id="Camada_1" xmlns="http://www.w3.org/2000/svg" version="1.1" viewBox="0 0 435 189">
  <defs>
    <style>
      .st0 {
        fill: #6b6b69;
      }
    </style>
  </defs>
  <g>
    <path class="st0" d="M17.9,165.7h8.6c-.1,5.5-3.3,8.9-8.9,8.9s-10-6-10-12.3,2.9-12.3,9.8-12.3,7.7,2.1,8.3,6.4h5.5c-.9-7.4-6.9-11-13.8-11s-15.5,7.7-15.5,16.9,5.8,16.9,15.5,16.9,7-1.4,9.7-4.6l.9,3.8h3.6v-17h-13.7v4.3Z"/>
    <path class="st0" d="M40.6,159.5h0v-4.5h-4.8v23.4h5.2v-11.3c0-4.5,2.5-7.8,6.3-7.8s1.4,0,2.2.2v-5c-.8-.1-.9-.1-1.9-.1-2.6,0-6.1,2.2-6.8,5.2Z"/>
    <path class="st0" d="M96.6,168.8c0,3.9-1.9,6.2-5.7,6.2s-4.5-1.9-4.5-5.4v-14.5h-5.2v15c0,5.9,2.7,8.9,8.7,8.9s5.3-1.5,6.7-3.9h0v3.3h5.1v-23.4h-5.2v13.7Z"/>
    <path class="st0" d="M118.1,154.4c-3,0-5.7,1.1-7.2,3.8h0v-3.2h-4.9v32h5.2v-11.7h0c1.6,2.6,4.9,3.7,7.8,3.7,7,0,10.1-6.1,10.1-12.2s-3.6-12.4-10.9-12.4ZM117.4,175c-4.6,0-6.6-4.2-6.6-8.2s1.7-8.3,6.5-8.3,6.5,4.4,6.5,8.3-1.8,8.2-6.5,8.2Z"/>
    <path class="st0" d="M65.3,154.4c-7.3,0-11.8,5.2-11.8,12.3s4.5,12.3,11.8,12.3,11.8-5.1,11.8-12.3-4.5-12.3-11.8-12.3ZM65.3,175c-4.6,0-6.6-4.2-6.6-8.3s2.1-8.2,6.6-8.2,6.7,4.1,6.7,8.2-2.1,8.3-6.6,8.3Z"/>
  </g>
  <g>
    <path class="st0" d="M337.5,143.1v-43.3l5.1-9,40.5-40.5v-14.1h-86.1v95.1l-11.8,11.8h-38.2l-30.9-25.6-24.8,22.8-7.9,2.8h-48.4V36.3h-40.5v106.9h-27V36.3h-18l-22.5,21.9v84.9H0V52l4.5-8.7L37.7,11.2l8.4-3.1h100.1l15.7,15.5v93.1h15.2l25.3-23.6V8.1h27v84.9l25.3,23.6h15.2V8.1h126l13.5,13.5v36l-5.6,9.6-39.4,39.4v36.5s-27,0-27,0Z"/>
    <path class="st0" d="M424.2,8.1c-2,0-4,.6-5.7,1.7-1.7,1.1-3,2.7-3.8,4.6-.8,1.9-1,3.9-.6,5.9.4,2,1.4,3.8,2.8,5.3,1.4,1.4,3.3,2.4,5.3,2.8,2,.4,4.1.2,5.9-.6,1.9-.8,3.5-2.1,4.6-3.8,1.1-1.7,1.7-3.7,1.7-5.7s-.3-2.7-.8-3.9c-.5-1.2-1.3-2.4-2.2-3.3-1-1-2.1-1.7-3.3-2.2-1.2-.5-2.6-.8-3.9-.8ZM424.2,26.6c-1.6,0-3.2-.5-4.6-1.4-1.4-.9-2.4-2.2-3-3.7-.6-1.5-.8-3.2-.5-4.7.3-1.6,1.1-3.1,2.2-4.2,1.1-1.1,2.6-1.9,4.2-2.2,1.6-.3,3.2-.2,4.7.5,1.5.6,2.8,1.7,3.7,3,.9,1.4,1.4,2.9,1.4,4.6s-.9,4.3-2.4,5.8c-1.5,1.5-3.6,2.4-5.8,2.4ZM424.4,19.7h-1.5v3.3h-1.9v-9h3.3c.9,0,1.7.2,2.5.7.3.3.5.6.7.9.1.4.2.7.2,1.1,0,.5-.1,1.1-.4,1.5-.3.5-.7.8-1.2,1l2,3.7h0c0,.1-2,.1-2,.1l-1.7-3.3M422.9,18.3h1.5c.4,0,.8-.1,1.1-.4.1-.1.2-.3.3-.5,0-.2,0-.4,0-.6,0-.2,0-.4,0-.6,0-.2-.2-.3-.3-.5-.2-.1-.3-.2-.5-.3-.2,0-.4,0-.6,0h-1.5v2.8Z"/>
  </g>
</svg>
