<svg width="1703" height="414" viewBox="0 0 1703 414" fill="none" xmlns="http://www.w3.org/2000/svg">
<path d="M1244 346H1275.73C1289.48 346 1297.11 350.991 1297.11 362.573C1297.11 369.541 1293.72 373.873 1287.98 376.698C1296.26 379.052 1300.31 385.361 1300.31 393.742C1300.31 407.113 1289.11 413.234 1276.58 413.234H1244V346ZM1258.78 373.214H1273.85C1279.22 373.214 1282.8 370.671 1282.8 365.21C1282.8 359.842 1279.22 357.488 1272.81 357.488H1258.78V373.214ZM1258.78 401.746H1274.7C1281.57 401.746 1285.53 398.921 1285.53 392.894C1285.53 386.397 1281.67 383.29 1274.98 383.29H1258.78V401.746Z" fill="#6b6b69"/>
<path d="M1302.96 346H1319.62L1335.35 372.555L1350.98 346H1367.46L1342.51 387.433V413.234H1327.72V387.056L1302.96 346Z" fill="#6b6b69"/>
<path d="M1549.2 413.234V391.699L1551.72 387.223L1571.85 367.085V360.092H1529.06V407.361L1523.19 413.234H1504.17L1488.79 400.509L1476.48 411.836L1472.56 413.234H1448.51V360.094H1428.37V413.233H1414.95V360.094H1406L1394.81 371.002V413.233H1381.38V367.925L1383.62 363.59L1400.12 347.647L1404.32 346.109H1454.1L1461.93 353.8V400.09H1469.49L1482.07 388.343V346.107H1495.5V388.343L1508.08 400.09H1515.64V346.108H1578.29L1585 352.822V370.722L1582.2 375.477L1562.62 395.055L1562.62 413.228L1549.2 413.234Z" fill="#6b6b69"/>
<path d="M331.449 38.3898C329.355 16.8516 313.002 0 293.059 0C271.72 0 254.47 19.1451 254.47 42.7773V311.506C254.47 335.238 271.72 354.383 293.059 354.383C313.102 354.383 329.455 337.532 331.449 315.893V38.3898Z" fill="#6b6b69"/>
<path d="M76.9791 38.3898C74.8851 16.8517 58.5321 0 38.5893 0C17.2505 0 0 19.145 0 42.7772V311.506C0 335.238 17.2505 354.383 38.5893 354.383C58.6317 354.383 74.9849 337.532 76.9791 315.893V38.3898Z" fill="#6b6b69"/>
<path d="M203.915 98.0189C201.822 76.4804 185.468 59.7285 165.525 59.7285C144.187 59.7285 126.837 78.9733 126.936 102.505L127.534 251.877C127.534 275.509 144.785 294.754 166.124 294.754C186.167 294.754 202.619 277.903 204.514 256.264L203.915 98.1188V98.0189Z" fill="#6b6b69"/>
<path d="M663.995 101.21C633.582 101.21 605.263 114.87 587.513 135.71C571.958 114.87 546.931 101.309 518.512 101.309C494.082 101.309 472.144 111.281 456.589 127.335C455.592 115.07 445.322 105.298 432.758 105.298C419.496 105.298 408.827 115.968 408.827 129.13V279.099C408.827 292.362 419.496 303.031 432.758 303.031C446.019 303.031 456.689 292.362 456.689 279.099V198.032C456.689 169.414 478.926 146.28 506.546 146.28C534.167 146.28 556.403 169.414 556.403 198.032V278.999C556.403 292.162 567.072 302.931 580.335 302.931C593.596 302.931 604.266 292.162 604.266 278.999V197.933C604.266 169.015 626.602 146.28 654.122 146.18C681.644 146.18 703.98 169.015 703.98 197.933V278.9C703.98 292.262 714.749 302.632 727.911 302.832C741.074 302.632 751.842 292.262 751.842 278.9V185.867C751.842 139.101 714.749 101.21 663.995 101.11V101.21Z" fill="#6b6b69"/>
<path d="M945.784 105.199C932.521 105.199 921.857 115.868 921.857 129.13V129.429C905.101 111.979 882.269 101.21 857.241 101.21C805.29 101.21 763.51 147.178 763.51 204.314C763.51 261.45 805.29 307.019 857.241 307.019C882.269 307.019 905.101 296.25 921.857 278.8V279.099C921.857 292.362 932.521 303.03 945.784 303.03C959.047 303.03 969.72 292.362 969.72 279.099V129.13C969.72 115.868 959.047 105.199 945.784 105.199ZM867.212 261.949C836.301 261.949 811.372 236.123 811.372 204.214C811.372 172.305 836.301 146.28 867.212 146.28C898.125 146.28 923.051 172.106 923.051 204.214C923.051 236.322 898.125 261.949 867.212 261.949Z" fill="#6b6b69"/>
<path d="M1065.14 306.62C1098.65 306.62 1152.5 291.064 1152.5 243.202C1152.5 200.923 1110.61 190.154 1067.14 180.98C1057.57 178.987 1040.01 174.998 1040.01 163.032C1040.01 153.459 1050.39 145.882 1070.33 145.882C1085.99 145.882 1103.54 150.668 1117.79 155.953C1120.09 156.849 1122.68 157.348 1125.47 157.348C1137.53 157.348 1147.21 147.676 1147.21 135.61C1147.21 126.537 1141.73 118.859 1133.95 115.568C1113.1 106.793 1089.58 100.71 1070.03 100.71C1035.73 100.71 988.262 118.659 988.262 164.528C988.262 210.396 1033.34 222.761 1067.24 228.743C1081.2 231.137 1100.74 234.727 1100.74 245.894C1100.74 255.866 1085.19 261.051 1064.05 261.051C1044.4 261.051 1028.45 256.663 1015.69 251.079C1001.43 244.797 985.273 255.367 985.273 270.922C985.273 279.697 990.56 287.276 998.041 290.666C1019.28 300.338 1044.11 306.521 1065.14 306.521V306.62Z" fill="#6b6b69"/>
<path d="M1296.48 259.057C1281.62 262.747 1268.16 262.747 1259.19 257.362C1251.91 252.974 1249.51 244.898 1249.51 233.63V152.363H1289.5C1301.96 152.363 1312.03 142.292 1312.03 129.828C1312.03 117.364 1301.96 107.293 1289.5 107.293H1249.51V70.8968C1249.51 57.6348 1238.85 46.9655 1225.59 46.9655C1212.32 46.9655 1201.65 57.6348 1201.65 70.8968V107.293H1178.82C1166.35 107.293 1156.28 117.364 1156.28 129.828C1156.28 142.292 1166.35 152.363 1178.82 152.363H1201.65V239.114C1201.65 265.937 1213.21 284.883 1231.16 296.051C1252.21 309.213 1280.33 310.509 1308.14 302.532C1317.61 299.84 1324.5 291.164 1324.5 280.894C1324.5 266.336 1310.64 255.567 1296.48 259.057Z" fill="#6b6b69"/>
<path d="M1423.91 101.21C1368.67 101.21 1324.1 147.178 1324.2 204.015C1324.3 269.925 1365.98 307.019 1431.59 307.019C1451.14 307.019 1472.38 303.13 1493.32 295.852C1502.09 292.86 1508.38 284.484 1508.38 274.612C1508.38 262.248 1498.3 252.177 1485.93 252.177C1483.44 252.177 1481.05 252.575 1478.75 253.373C1462.4 258.957 1445.65 261.949 1431.49 261.949C1403.37 261.949 1384.33 252.277 1376.35 230.838H1499.8C1512.76 230.838 1523.33 220.568 1523.63 207.604C1523.63 206.308 1523.63 205.112 1523.63 203.815C1523.63 147.078 1479.15 101.21 1423.91 101.21ZM1423.91 146.28C1447.35 146.28 1466.99 163.331 1473.48 186.964H1374.26C1380.74 163.331 1400.48 146.28 1423.82 146.28H1423.91Z" fill="#6b6b69"/>
<path d="M1631.12 101.21C1614.46 101.21 1596.81 110.583 1582.76 124.643C1580.66 113.574 1570.89 105.298 1559.32 105.298C1546.06 105.298 1535.4 115.968 1535.4 129.229V279.099C1535.4 292.362 1546.06 303.03 1559.32 303.03C1572.59 303.03 1583.26 292.362 1583.26 279.099V214.085C1583.26 174.4 1607.88 154.058 1634.91 149.97C1646.68 148.175 1655.75 138.104 1655.75 125.739C1655.75 112.179 1644.78 101.21 1631.22 101.21H1631.12Z" fill="#6b6b69"/>
<path d="M1662.33 47.9624H1658.84C1657.35 47.9624 1656.65 48.1618 1655.35 48.9595L1643.98 55.4409C1642.39 56.4381 1641.99 57.1361 1642.79 58.8312L1645.48 63.8168C1646.37 65.4123 1647.37 65.8112 1649.27 64.814L1653.16 62.6203V86.8508C1653.16 88.6453 1653.76 89.3438 1655.65 89.3438H1662.23C1664.12 89.3438 1664.72 88.7452 1664.72 86.8508V50.4552C1664.72 48.6604 1664.12 47.9624 1662.23 47.9624H1662.33Z" fill="#6b6b69"/>
<path d="M1670.6 57.2356C1669.9 58.9307 1670.41 59.7285 1672.11 60.3267L1678.29 62.6202C1679.98 63.2185 1680.58 62.8196 1681.37 61.0247C1682.67 58.3325 1683.97 57.1359 1686.46 57.1359C1688.95 57.1359 1690.45 58.7313 1690.45 61.0247C1690.45 65.4121 1686.16 67.1073 1681.48 69.1016C1676.09 71.395 1670.2 74.187 1670.2 82.0644V86.7509C1670.2 88.5454 1670.81 89.2439 1672.7 89.2439H1698.92C1700.82 89.2439 1701.42 88.6453 1701.42 86.7509V81.8649C1701.42 79.9704 1700.82 79.3721 1698.92 79.3721H1682.27V79.073C1682.27 77.5773 1685.96 77.0786 1689.15 76.0815C1698.03 72.8907 1702.32 69.6001 1702.32 60.6259C1702.32 53.1473 1696.73 47.1646 1686.96 47.1646C1677.99 47.1646 1673.1 51.2528 1670.71 57.3353L1670.6 57.2356Z" fill="#6b6b69"/>
</svg>
